<svg width="304" height="304" viewBox="0 0 304 304" fill="none" xmlns="http://www.w3.org/2000/svg">
<path d="M302 303H303V302V149.929C303 100.607 287.868 63.3358 261.343 38.4016C234.827 13.4768 197.055 1 152 1C106.942 1 69.1703 13.6263 42.6562 38.6245C16.1326 63.6316 1 100.901 1 149.929V301.909V302.909H2H75.1557H76.1557V301.909V206.414H130.909H131.909V205.414V180.38V179.38H130.909H76.1557V149.929C76.1557 122.299 83.7874 102.02 96.9992 88.6496C110.211 75.2792 129.136 68.6805 152 68.6805C174.864 68.6805 193.789 75.2792 207.001 88.6496C220.213 102.02 227.844 122.299 227.844 149.929V302V303H228.844H302Z" fill="#ECBAA3" stroke="black" stroke-width="2"/>
</svg>
