<svg width="14" height="14" viewBox="0 0 14 14" fill="none" xmlns="http://www.w3.org/2000/svg">
<path d="M13.6534 2.84804C13.8422 2.84804 13.9966 2.69363 14 2.5049V0.346569C14 0.154412 13.8456 0 13.6534 0H11.4951C11.3064 0 11.152 0.154412 11.152 0.346569V1.09804H2.84804V0.346569C2.84804 0.157843 2.69363 0.00343137 2.5049 0H0.346569C0.157843 0 0.00343137 0.154412 0 0.346569V2.5049C0 2.69363 0.154412 2.84804 0.346569 2.84804H1.09804V11.152H0.346569C0.157843 11.152 0.00343137 11.3064 0 11.4951V13.6534C0 13.8422 0.154412 13.9966 0.346569 14H2.5049C2.69363 14 2.84804 13.8456 2.84804 13.6534V12.902H11.152V13.6534C11.152 13.8422 11.3064 13.9966 11.4951 14H13.6534C13.8422 14 13.9966 13.8456 14 13.6534V11.4951C14 11.3064 13.8456 11.152 13.6534 11.152H12.902V2.84804H13.6534ZM0.686275 2.16176V0.686275H2.16176V2.16176H0.686275ZM2.16176 13.3137H0.686275V11.8382H2.16176V13.3137ZM11.152 11.4951V12.2157H2.84804V11.4951C2.84804 11.3064 2.69363 11.152 2.5049 11.152H1.78431V2.84804H2.5049C2.69363 2.84804 2.84804 2.69363 2.84804 2.5049V1.78431H11.152V2.5049C11.152 2.69363 11.3064 2.84804 11.4951 2.84804H12.2157V11.152H11.4951C11.3064 11.152 11.152 11.3064 11.152 11.4951ZM13.3137 11.8382V13.3137H11.8382V11.8382H13.3137ZM11.8382 2.16176V0.686275H13.3137V2.16176H11.8382Z" fill="#5398D4"/>
</svg>
