<svg xmlns="http://www.w3.org/2000/svg" xmlns:xlink="http://www.w3.org/1999/xlink" viewBox="0 0 718 129.4"><defs><style>.cls-1,.cls-2{fill-rule:evenodd;}.cls-1{fill:url(#linear-gradient);}</style><linearGradient id="linear-gradient" x1="155.5" y1="126.75" x2="249.4" y2="126.75" gradientTransform="matrix(1, 0, 0, -1, 0, 206.4)" gradientUnits="userSpaceOnUse"><stop offset="0" stop-color="#ecbaa3"/><stop offset="1" stop-color="#5398d4"/></linearGradient></defs><g id="Layer_2" data-name="Layer 2"><g id="Layer_1-2" data-name="Layer 1"><path d="M0,0H22.6V128.7H0Z"/><path d="M40.7,79.9c0-28.4,20.9-49.3,50.5-49.3s50.1,20.8,50.1,49.3v8H64.4c3,13.6,13.5,20.8,26.8,20.8,10.1,0,17.5-2.8,22.2-8.9h24.1c-7,17.8-24.1,29.4-46.3,29.4C61.5,129.2,40.7,108.4,40.7,79.9Zm76.7-10c-3.6-12.5-13.9-18.7-26.2-18.7C78.5,51.2,68.6,57.6,65,70h52.4Z"/><path d="M267.5,90.7V0h22.6V33.2h48.4V53.7H290V90.9c0,12.5,6.5,17.4,15.8,17.4s15.8-4.7,15.8-17.4V88.4h22.6v2.5c0,26-15.6,38.5-38.4,38.5S267.5,116.7,267.5,90.7Z"/><path d="M354.8,79.9c0-28.4,20.9-49.3,50.5-49.3s50.5,20.8,50.5,49.3-20.8,49.3-50.4,49.3S354.8,108.4,354.8,79.9Zm78.1,0c0-16.5-11-28.2-27.5-28.2s-27.8,11.8-27.8,28.2,11.2,28.3,27.8,28.3,27.5-11.8,27.5-28.3Z"/><path d="M467.9,114.2a15,15,0,1,1,15,15,14.65,14.65,0,0,1-14-9.2A12.71,12.71,0,0,1,467.9,114.2Z"/><path d="M509.8,79.9c0-28.4,20.9-49.3,50.5-49.3s50.2,20.8,50.2,49.3v8H533.6c3,13.6,13.5,20.8,26.8,20.8,10.1,0,17.5-2.8,22.2-8.9h24.1c-7,17.8-24.1,29.4-46.3,29.4C530.7,129.2,509.8,108.4,509.8,79.9Zm76.8-10c-3.6-12.5-13.9-18.7-26.3-18.7-12.7,0-22.6,6.4-26.2,18.8h52.5Z"/><path d="M625.3,81.8V33.1h22.6V81.8c0,17.8,9.5,26.3,23.8,26.3s23.7-8.5,23.7-26.3V33.1H718V81.8c0,31.3-18.6,47.4-46.3,47.4S625.3,113.3,625.3,81.8Z"/><path class="cls-1" d="M224.3,128.2V79c0-8.1-2-14.3-6-18.4s-9.2-6-15.9-6-12,2-15.9,6-6,10.3-6,18.4v8.1h17V97.9H180.6v30.3H155.5V79c0-15.1,4.5-27.5,13-35.7,8.1-8,19.9-12.2,33.9-12.2s25.9,4.2,34,12.1c8.5,8.3,12.9,20.7,12.9,35.8l.1,49.2Z"/><path class="cls-2" d="M249.9,128.7H223.8V79c0-8.4-2.2-14.3-5.9-18.1s-8.9-5.8-15.5-5.8-11.8,2-15.5,5.8S181,70.6,181,79v7.6h17V98.4H181.1v30.3H155V79c0-15.7,4.7-27.9,13.1-36.1s20.3-12.3,34.3-12.3,25.9,4,34.3,12.2S249.8,63.2,249.8,79ZM179.2,96.5h16.9V88.7H179.2V79.1c0-17.5,9.3-25.8,23.3-25.8s23.3,8.4,23.3,25.8v47.7H248V79c0-30.8-18.2-46.4-45.4-46.4S157.2,48.4,157.2,79v47.7h22.2Z"/></g></g></svg>