<svg width="14" height="14" viewBox="0 0 14 14" fill="none" xmlns="http://www.w3.org/2000/svg">
<path d="M14 8.61245C14 7.87434 13.3995 7.27384 12.6614 7.27384H1.64505V1.80284C1.64505 1.26178 2.08524 0.821614 2.6263 0.821614H3.52558C3.67749 0.821614 3.8224 0.886823 3.92318 1.00048L4.33448 1.46446C4.30987 1.58403 4.29691 1.70783 4.29691 1.83456V2.37255C4.13773 2.4289 4.0235 2.58035 4.0235 2.75883C4.0235 2.98533 4.20712 3.16895 4.43362 3.16895H7.82657C8.05307 3.16895 8.23669 2.98533 8.23669 2.75883C8.23669 2.58035 8.12246 2.4289 7.96328 2.37255V1.83456C7.96328 0.823719 7.14093 0.00137329 6.13009 0.00137329C5.5641 0.00137329 5.0573 0.259312 4.72076 0.663717L4.53697 0.456415C4.28062 0.167199 3.912 0.00137329 3.52556 0.00137329H2.6263C1.63296 0.00137329 0.824806 0.809502 0.824806 1.80284V7.32853C0.824806 7.34441 0.825927 7.36 0.827677 7.37542C0.342341 7.57659 0 8.0552 0 8.61245C0 9.1686 0.341001 9.64647 0.824806 9.84836V10.5896C0.824806 12.0576 2.0191 13.2519 3.48709 13.2519H3.72149V13.59C3.72149 13.8165 3.90511 14.0001 4.13161 14.0001C4.3581 14.0001 4.54173 13.8165 4.54173 13.59V13.2519H9.45825V13.59C9.45825 13.8165 9.64187 14.0001 9.86837 14.0001C10.0949 14.0001 10.2785 13.8165 10.2785 13.59V13.2519H10.5129C11.9809 13.2519 13.1752 12.0576 13.1752 10.5896V9.84836C13.659 9.64647 14 9.16857 14 8.61245ZM6.13007 0.821586C6.68862 0.821586 7.14301 1.276 7.14301 1.83453V2.34868H5.11712V1.83456C5.11712 1.276 5.57151 0.821586 6.13007 0.821586ZM10.5129 12.4316H3.48709C2.47138 12.4316 1.64505 11.6053 1.64505 10.5896V9.95105H12.355V10.5896C12.355 11.6053 11.5286 12.4316 10.5129 12.4316ZM12.6614 9.13081H1.33861C1.05278 9.13081 0.82024 8.89828 0.82024 8.61245C0.82024 8.32662 1.05278 8.09408 1.33861 8.09408H12.6614C12.9472 8.09408 13.1798 8.32662 13.1798 8.61245C13.1798 8.89828 12.9472 9.13081 12.6614 9.13081Z" fill="#5398D4"/>
<path d="M8.11656 5.96577C8.08162 5.79743 7.94521 5.66619 7.77477 5.64027C7.60561 5.61457 7.4333 5.70176 7.35294 5.85257C7.27248 6.00355 7.29539 6.19431 7.41063 6.3212C7.52569 6.44785 7.71325 6.49034 7.87134 6.42455C8.04873 6.35076 8.15585 6.15508 8.11656 5.96577Z" fill="#5398D4"/>
<path d="M6.47606 5.9658C6.44111 5.79743 6.30473 5.66622 6.13426 5.6403C5.96516 5.6146 5.7928 5.70181 5.71244 5.8526C5.63198 6.00358 5.65489 6.19434 5.77013 6.32123C5.88521 6.44793 6.07269 6.49053 6.23083 6.42458C6.40819 6.35065 6.5154 6.15527 6.47606 5.9658Z" fill="#5398D4"/>
<path d="M4.83555 5.96577C4.80061 5.79745 4.66415 5.66616 4.49376 5.64027C4.32463 5.61457 4.15229 5.70176 4.07194 5.85257C3.99147 6.00355 4.01438 6.19431 4.12963 6.3212C4.24463 6.44782 4.43224 6.49034 4.59033 6.42455C4.76769 6.35079 4.87484 6.15502 4.83555 5.96577Z" fill="#5398D4"/>
<path d="M8.12275 4.36496C8.10503 4.19432 7.9809 4.04963 7.81431 4.00774C7.64857 3.96605 7.46831 4.03497 7.37363 4.17767C7.27916 4.32001 7.2828 4.51214 7.38522 4.6495C7.48772 4.78697 7.66951 4.84748 7.83375 4.79747C8.01825 4.74137 8.14233 4.55744 8.12275 4.36496Z" fill="#5398D4"/>
<path d="M6.48215 4.36505C6.46443 4.19441 6.3403 4.04975 6.17371 4.00783C6.00781 3.96611 5.82793 4.0352 5.73303 4.17776C5.6381 4.32034 5.6428 4.51184 5.74462 4.64956C5.84636 4.78717 6.02946 4.84768 6.19318 4.79786C6.3776 4.74176 6.5017 4.55723 6.48215 4.36505Z" fill="#5398D4"/>
<path d="M4.84175 4.36496C4.82406 4.19437 4.69984 4.04963 4.53331 4.00774C4.36757 3.96605 4.1873 4.03497 4.09262 4.17767C3.99788 4.32045 4.00226 4.51159 4.10421 4.64947C4.20595 4.78708 4.38906 4.84759 4.55278 4.79777C4.73716 4.74169 4.86127 4.55703 4.84175 4.36496Z" fill="#5398D4"/>
</svg>
