<svg id="Layer_1" data-name="Layer 1" xmlns="http://www.w3.org/2000/svg" xmlns:xlink="http://www.w3.org/1999/xlink" viewBox="0 0 739 239"><defs><style>.cls-1{fill:none;}.cls-2{fill:url(#linear-gradient);}</style><linearGradient id="linear-gradient" x1="169.92" y1="95.43" x2="258.85" y2="95.43" gradientUnits="userSpaceOnUse"><stop offset="0" stop-color="#ecbaa3"/><stop offset="1" stop-color="#5398d4"/></linearGradient></defs><rect class="cls-1" x="10" y="9" width="718" height="137"/><path d="M10,16.78H32.6V145.51H10Z"/><path d="M50.65,96.73c0-28.42,20.89-49.26,50.53-49.26s50.14,20.84,50.14,49.26v8H74.39c3,13.64,13.49,20.85,26.79,20.85,10.06,0,17.47-2.85,22.22-8.91h24.11c-7,17.81-24.11,29.37-46.35,29.37C71.54,146,50.65,125.16,50.65,96.73Zm76.71-10c-3.61-12.51-13.88-18.76-26.21-18.76-12.73,0-22.61,6.44-26.22,18.76Z"/><path d="M277.45,107.53V16.78h22.6V49.94h48.44V70.41H300.05v37.17c0,12.5,6.46,17.43,15.77,17.43s15.76-4.74,15.76-17.43v-2.47h22.61v2.47c0,26-15.58,38.46-38.37,38.46S277.45,133.49,277.45,107.53Z"/><path d="M364.83,96.73c0-28.42,20.89-49.26,50.52-49.26s50.53,20.84,50.53,49.26S445,146,415.35,146,364.83,125.16,364.83,96.73Zm78.06,0c0-16.48-11-28.23-27.54-28.23s-27.76,11.75-27.76,28.23S398.8,125,415.35,125,442.89,113.22,442.89,96.73Z"/><path d="M477.85,131a15,15,0,1,1,15,15,14.67,14.67,0,0,1-14-9.19A14.49,14.49,0,0,1,477.85,131Z"/><path d="M519.84,96.73c0-28.42,20.9-49.26,50.53-49.26s50.15,20.84,50.15,49.26v8H543.59c3,13.64,13.49,20.85,26.78,20.85,10.07,0,17.48-2.85,22.22-8.91H616.7c-7,17.81-24.11,29.37-46.34,29.37C540.72,146,519.84,125.16,519.84,96.73Zm76.71-10c-3.6-12.51-13.88-18.76-26.21-18.76-12.73,0-22.6,6.44-26.21,18.76Z"/><path d="M635.31,98.63V49.93h22.61v48.7c0,17.81,9.5,26.34,23.75,26.34s23.74-8.53,23.74-26.34V49.93H728v48.7C728,129.89,709.4,146,681.67,146S635.31,130.08,635.31,98.63Z"/><path d="M233.25,145.44V94.8c0-14-6.52-21.36-18.87-21.36s-18.86,7.38-18.86,21.36v5.44h16.53v15.52H195.52v29.65H166V94.8c0-30.92,18.09-49.37,48.38-49.37s48.39,18.45,48.39,49.37v50.64Z"/><path class="cls-2" d="M258.85,94.8v46.72H237.17V94.8c0-17.1-9.12-25.28-22.79-25.28S191.6,77.7,191.6,94.8v9.35h16.53v7.69H191.6v29.65H169.92V94.8c0-30,17.86-45.46,44.46-45.46S258.85,64.61,258.85,94.8Z"/><path d="M133.45,225.46a9.37,9.37,0,0,1-4.79-1.22,9.08,9.08,0,0,1-3.3-3.46,12,12,0,0,1,0-10.37,8.34,8.34,0,0,1,3.27-3.46,9.43,9.43,0,0,1,4.9-1.25,8.58,8.58,0,0,1,4.71,1.25,8.23,8.23,0,0,1,3.08,3.23,9.12,9.12,0,0,1,1.06,4.33q0,.42,0,.84v1h-15a7.75,7.75,0,0,0,1,3.61,6.26,6.26,0,0,0,2.25,2.13,6.09,6.09,0,0,0,2.88.72,5.79,5.79,0,0,0,3.31-.91,5.28,5.28,0,0,0,1.94-2.47h3.15a8.59,8.59,0,0,1-2.92,4.37A8.49,8.49,0,0,1,133.45,225.46Zm0-17.07a6.37,6.37,0,0,0-4.06,1.41,5.54,5.54,0,0,0-2,4h11.86a5.4,5.4,0,0,0-1.75-4A5.88,5.88,0,0,0,133.45,208.39ZM184,225.46a8.56,8.56,0,0,1-3.91-.8,5.41,5.41,0,0,1-2.32-2.13,5.7,5.7,0,0,1-.76-2.89,5.12,5.12,0,0,1,2.21-4.44,10.22,10.22,0,0,1,6-1.56h5.09v-.23a4.94,4.94,0,0,0-1.29-3.72,4.64,4.64,0,0,0-3.46-1.3,5.54,5.54,0,0,0-3.23,1,4.07,4.07,0,0,0-1.67,2.7h-3.27a6.12,6.12,0,0,1,1.37-3.46,7.77,7.77,0,0,1,3-2.12,9.55,9.55,0,0,1,3.8-.76c2.64,0,4.61.7,5.93,2.12a7.74,7.74,0,0,1,2,5.59V225h-2.85l-.19-3.38a7.53,7.53,0,0,1-2.35,2.73A6.84,6.84,0,0,1,184,225.46Zm.5-2.7a5.13,5.13,0,0,0,3.11-.95,6,6,0,0,0,2-2.47,7.81,7.81,0,0,0,.68-3.19v0h-4.82a6.23,6.23,0,0,0-4,1,3.15,3.15,0,0,0-.08,4.78A4.81,4.81,0,0,0,184.54,222.76Zm52.17,2.7a9,9,0,0,1-5.62-1.71,6.64,6.64,0,0,1-2.62-4.64h3.27a4.6,4.6,0,0,0,1.55,2.58,5.28,5.28,0,0,0,3.46,1.07,4.38,4.38,0,0,0,3-.84,2.68,2.68,0,0,0,.95-2,2.24,2.24,0,0,0-1.25-2.28,16.22,16.22,0,0,0-3.46-1,19.6,19.6,0,0,1-3-.87,6.93,6.93,0,0,1-2.54-1.6,3.8,3.8,0,0,1-1-2.77,5.07,5.07,0,0,1,1.82-4,8.69,8.69,0,0,1,9.92-.07,5.83,5.83,0,0,1,2.24,4.25h-3.15a3.2,3.2,0,0,0-1.25-2.24,5.11,5.11,0,0,0-5.44-.11,2.32,2.32,0,0,0-.91,1.9,2,2,0,0,0,1.18,1.78,13.06,13.06,0,0,0,3.27,1.1,26.49,26.49,0,0,1,3.3.95,5.89,5.89,0,0,1,2.59,1.64,4.33,4.33,0,0,1,1,3.11,5.16,5.16,0,0,1-1.94,4.22A7.92,7.92,0,0,1,236.71,225.46Zm44.18,7.9,4.67-10.18h-1.1l-7.49-17h3.46l6.23,14.67,6.62-14.67h3.3l-12.35,27.21ZM372.33,225V197.64h3.19V225Zm41.52-23a2.08,2.08,0,0,1-2.2-2.2,2.07,2.07,0,0,1,.6-1.52,2.24,2.24,0,0,1,1.6-.61,2.17,2.17,0,0,1,1.56.61,2,2,0,0,1,.64,1.52,2.14,2.14,0,0,1-2.2,2.2Zm-1.6,23V206.15h3.2V225Zm45.35,0-7.15-18.85h3.35l5.66,15.77,5.7-15.77h3.27L461.28,225Zm47.48-23a2.09,2.09,0,0,1-2.21-2.2,2.07,2.07,0,0,1,.61-1.52,2.24,2.24,0,0,1,1.6-.61,2.19,2.19,0,0,1,1.56.61,2,2,0,0,1,.64,1.52,2.16,2.16,0,0,1-.64,1.59A2.19,2.19,0,0,1,505.08,202Zm-1.6,23V206.15h3.19V225Zm39.91,0V206.15h2.89l.19,3.38a6.89,6.89,0,0,1,2.62-2.81,7.42,7.42,0,0,1,3.88-1,7,7,0,0,1,5.32,2.05q2,2,2,6.23v11h-3.19V214.32c0-3.92-1.62-5.89-4.86-5.89a5.3,5.3,0,0,0-4.07,1.79,7.18,7.18,0,0,0-1.6,5V225Zm60.36-5.93a9.69,9.69,0,0,1-2.93-.42l-1.9,1.79a4.31,4.31,0,0,0,1,.53,13.56,13.56,0,0,0,1.82.38c.78.1,1.89.22,3.31.34q3.79.27,5.43,1.75a5,5,0,0,1,1.63,3.88,5.79,5.79,0,0,1-.91,3.11,6.49,6.49,0,0,1-2.73,2.44,10.26,10.26,0,0,1-4.72.95,13.71,13.71,0,0,1-4.52-.69,6.44,6.44,0,0,1-3.08-2,5.16,5.16,0,0,1-1.1-3.38,5.63,5.63,0,0,1,.57-2.32,6.24,6.24,0,0,1,2.13-2.32,9.64,9.64,0,0,1-1.44-.72,10.47,10.47,0,0,1-1.07-.91v-.88l3.23-3.19a6.27,6.27,0,0,1-2.24-5,6.67,6.67,0,0,1,.87-3.38,6.21,6.21,0,0,1,2.55-2.39,8.36,8.36,0,0,1,4.07-.91,9.2,9.2,0,0,1,3,.45h6.95v2.4l-3.53.15a6.34,6.34,0,0,1,1.1,3.68,6.48,6.48,0,0,1-.91,3.39,6.37,6.37,0,0,1-2.55,2.43A8.47,8.47,0,0,1,603.75,219.07Zm0-2.62a4.67,4.67,0,0,0,3.19-1,3.82,3.82,0,0,0,1.21-3,3.65,3.65,0,0,0-1.21-3,4.59,4.59,0,0,0-3.19-1.06,4.78,4.78,0,0,0-3.27,1.06,3.69,3.69,0,0,0-1.18,3,3.87,3.87,0,0,0,1.18,3A4.87,4.87,0,0,0,603.75,216.45Zm-5.55,11a3,3,0,0,0,1.59,2.81,7.65,7.65,0,0,0,4,.95,6.31,6.31,0,0,0,3.77-1,3.21,3.21,0,0,0,1.44-2.74,2.82,2.82,0,0,0-1-2.13,6.2,6.2,0,0,0-3.65-1c-1.39-.1-2.59-.23-3.61-.38a4.81,4.81,0,0,0-2,1.78A4,4,0,0,0,598.2,227.43Z"/></svg>