<svg id="Layer_1" data-name="Layer 1" xmlns="http://www.w3.org/2000/svg" xmlns:xlink="http://www.w3.org/1999/xlink" viewBox="0 0 718 137.04"><defs><style>.cls-1{fill:none;}.cls-2{fill:url(#linear-gradient);}</style><linearGradient id="linear-gradient" x1="169.92" y1="144.57" x2="258.85" y2="144.57" gradientTransform="matrix(1, 0, 0, -1, 0, 240)" gradientUnits="userSpaceOnUse"><stop offset="0" stop-color="#ecbaa3"/><stop offset="1" stop-color="#5398d4"/></linearGradient></defs><rect class="cls-1" width="718" height="137"/><path d="M10,16.78H32.6V145.51H10Z" transform="translate(-10 -9)"/><path d="M50.65,96.73c0-28.42,20.89-49.26,50.53-49.26s50.14,20.84,50.14,49.26v8H74.39c3,13.64,13.49,20.85,26.79,20.85,10.06,0,17.47-2.85,22.22-8.91h24.11c-7,17.81-24.11,29.37-46.35,29.37C71.54,146,50.65,125.16,50.65,96.73Zm76.71-10C123.75,74.22,113.48,68,101.15,68c-12.73,0-22.61,6.44-26.22,18.76Z" transform="translate(-10 -9)"/><path d="M277.45,107.53V16.78h22.6V49.94h48.44V70.41H300.05v37.17c0,12.5,6.46,17.43,15.77,17.43s15.76-4.74,15.76-17.43v-2.47h22.61v2.47c0,26-15.58,38.46-38.37,38.46S277.45,133.49,277.45,107.53Z" transform="translate(-10 -9)"/><path d="M364.83,96.73c0-28.42,20.89-49.26,50.52-49.26s50.53,20.84,50.53,49.26S445,146,415.35,146,364.83,125.16,364.83,96.73Zm78.06,0c0-16.48-11-28.23-27.54-28.23s-27.76,11.75-27.76,28.23S398.8,125,415.35,125s27.54-11.78,27.54-28.27Z" transform="translate(-10 -9)"/><path d="M477.85,131a15,15,0,1,1,15,15,14.67,14.67,0,0,1-14-9.19A14.45,14.45,0,0,1,477.85,131Z" transform="translate(-10 -9)"/><path d="M519.84,96.73c0-28.42,20.9-49.26,50.53-49.26s50.15,20.84,50.15,49.26v8H543.59c3,13.64,13.49,20.85,26.78,20.85,10.07,0,17.48-2.85,22.22-8.91H616.7c-7,17.81-24.11,29.37-46.34,29.37C540.72,146,519.84,125.16,519.84,96.73Zm76.71-10C593,74.22,582.67,68,570.34,68c-12.73,0-22.6,6.44-26.21,18.76Z" transform="translate(-10 -9)"/><path d="M635.31,98.63V49.93h22.61v48.7c0,17.81,9.5,26.34,23.75,26.34s23.74-8.53,23.74-26.34V49.93H728v48.7c0,31.26-18.6,47.37-46.33,47.37S635.31,130.08,635.31,98.63Z" transform="translate(-10 -9)"/><path d="M233.25,145.44V94.8c0-14-6.52-21.36-18.87-21.36s-18.86,7.38-18.86,21.36v5.44h16.53v15.52H195.52v29.65H166V94.8c0-30.92,18.09-49.37,48.38-49.37s48.39,18.45,48.39,49.37v50.64Z" transform="translate(-10 -9)"/><path class="cls-2" d="M258.85,94.8v46.72H237.17V94.8c0-17.1-9.12-25.28-22.79-25.28S191.6,77.7,191.6,94.8v9.35h16.53v7.69H191.6v29.65H169.92V94.8c0-30,17.86-45.46,44.46-45.46S258.85,64.61,258.85,94.8Z" transform="translate(-10 -9)"/></svg>