<svg width="589" height="595" viewBox="0 0 589 595" fill="none" xmlns="http://www.w3.org/2000/svg">
<path d="M143.885 403.759V594.32H72.6926H1.5V293.899C1.5 197.347 30.9859 124.265 82.3756 75.3191C133.769 26.3695 207.133 1.5 295 1.5C382.869 1.5 456.232 26.0774 507.625 74.8803C559.014 123.679 588.5 196.76 588.5 293.899V594.5H446.115V293.899C446.115 238.745 431.028 197.891 404.553 170.825C378.078 143.758 340.281 130.547 295 130.547C249.719 130.547 211.922 143.758 185.447 170.825C158.972 197.891 143.885 238.745 143.885 293.899V354.192V354.692H144.385H253.162V403.259H144.385H143.885V403.759Z" fill="#ECBAA3"/>
<path d="M143.885 403.759V594.32H72.6926H1.5V293.899C1.5 197.347 30.9859 124.265 82.3756 75.3191C133.769 26.3695 207.133 1.5 295 1.5C382.869 1.5 456.232 26.0774 507.625 74.8803C559.014 123.679 588.5 196.76 588.5 293.899V594.5H446.115V293.899C446.115 238.745 431.028 197.891 404.553 170.825C378.078 143.758 340.281 130.547 295 130.547C249.719 130.547 211.922 143.758 185.447 170.825C158.972 197.891 143.885 238.745 143.885 293.899V354.192V354.692H144.385H253.162V403.259H144.385H143.885V403.759Z" stroke="black"/>
<path d="M143.885 403.759V594.32H72.6926H1.5V293.899C1.5 197.347 30.9859 124.265 82.3756 75.3191C133.769 26.3695 207.133 1.5 295 1.5C382.869 1.5 456.232 26.0774 507.625 74.8803C559.014 123.679 588.5 196.76 588.5 293.899V594.5H446.115V293.899C446.115 238.745 431.028 197.891 404.553 170.825C378.078 143.758 340.281 130.547 295 130.547C249.719 130.547 211.922 143.758 185.447 170.825C158.972 197.891 143.885 238.745 143.885 293.899V354.192V354.692H144.385H253.162V403.259H144.385H143.885V403.759Z" stroke="black" stroke-opacity="0.2"/>
<path d="M589 595V293.899C589 99.4142 470.918 1 295 1C119.082 1 1 100.586 1 293.899V594.82M445.615 595V293.899C445.615 183.769 385.369 131.047 295 131.047C204.631 131.047 144.385 183.769 144.385 293.899V354.192H253.662V403.759H144.385V594.82" stroke="black" stroke-width="2"/>
</svg>
