<svg width="153" height="30" viewBox="0 0 153 30" fill="none" xmlns="http://www.w3.org/2000/svg">
<path d="M99.7278 26.2099C99.7278 25.5778 99.9152 24.9599 100.266 24.4343C100.618 23.9087 101.117 23.4991 101.701 23.2572C102.285 23.0153 102.927 22.952 103.547 23.0753C104.167 23.1986 104.737 23.503 105.184 23.95C105.631 24.397 105.935 24.9664 106.058 25.5864C106.182 26.2064 106.118 26.849 105.876 27.433C105.635 28.017 105.225 28.5161 104.699 28.8673C104.174 29.2185 103.556 29.4059 102.924 29.4059C102.501 29.4153 102.082 29.339 101.69 29.1817C101.298 29.0244 100.942 28.7893 100.643 28.4906C100.344 28.192 100.109 27.8359 99.952 27.4439C99.7947 27.052 99.7184 26.6322 99.7278 26.2099Z" fill="black"/>
<path d="M0 0H4.68802V28.5543H0V0Z" fill="black"/>
<path d="M8.52374 18.5389C8.52374 12.515 13.0349 8.09741 19.4324 8.09741C25.83 8.09741 30.2591 12.515 30.2591 18.5389V20.2256H13.65C14.3062 23.1171 16.5617 24.6432 19.4324 24.6432C21.606 24.6432 23.2054 24.0408 24.2306 22.7557H29.4358C27.9184 26.5307 24.2306 28.9804 19.4293 28.9804C13.0349 28.9804 8.52374 24.5629 8.52374 18.5389ZM25.0855 16.4105C24.3063 13.7599 22.0886 12.4347 19.4261 12.4347C16.6785 12.4347 14.5459 13.8001 13.7667 16.4105H25.0855Z" fill="black"/>
<path d="M57.1087 21.1537V1.70483H61.879V8.8115H72.1011V13.1973H61.879V21.163C61.879 23.8433 63.2419 24.8991 65.2062 24.8991C67.1704 24.8991 68.5334 23.8839 68.5334 21.163V20.6351H73.3037V21.163C73.3037 26.7266 70.0166 29.4068 65.2062 29.4068C60.3958 29.4068 57.1087 26.7172 57.1087 21.1537Z" fill="black"/>
<path d="M75.4345 18.5389C75.4345 12.515 79.9287 8.09741 86.3022 8.09741C92.6757 8.09741 97.1699 12.515 97.1699 18.5389C97.1699 24.5629 92.6757 28.9804 86.3022 28.9804C79.9287 28.9804 75.4345 24.5629 75.4345 18.5389ZM92.2263 18.5389C92.2263 15.045 89.8567 12.5551 86.3022 12.5551C82.7477 12.5551 80.3309 15.045 80.3309 18.5389C80.3309 22.0328 82.7414 24.5227 86.3022 24.5227C89.8629 24.5227 92.2263 22.0328 92.2263 18.5389Z" fill="black"/>
<path d="M108.677 18.5389C108.677 12.515 113.1 8.09741 119.372 8.09741C125.644 8.09741 129.986 12.515 129.986 18.5389V20.2256H113.703C114.346 23.1171 116.557 24.6432 119.372 24.6432C121.503 24.6432 123.071 24.0408 124.076 22.7557H129.179C127.691 26.5307 124.076 28.9804 119.369 28.9804C113.095 28.9804 108.677 24.5629 108.677 18.5389ZM124.914 16.4105C124.15 13.7599 121.976 12.4347 119.366 12.4347C116.672 12.4347 114.581 13.8001 113.817 16.4105H124.914Z" fill="black"/>
<path d="M133.396 18.8933V8.52368H138.177V18.8933C138.177 22.6861 140.186 24.5018 143.199 24.5018C146.211 24.5018 148.22 22.6861 148.22 18.8933V8.52368H153V18.8933C153 25.5509 149.063 28.9805 143.199 28.9805C137.334 28.9805 133.396 25.5912 133.396 18.8933Z" fill="black"/>
<path d="M52.8469 18.1846V28.5542H48.0663V18.1846C48.0663 14.3918 46.0576 12.5761 43.0447 12.5761C40.0317 12.5761 38.023 14.3918 38.023 18.1846V20.261H41.6664V21.9681H38.023V28.548H33.2424V18.1846C33.2424 11.5271 37.1794 8.09741 43.0447 8.09741C48.9099 8.09741 52.8469 11.4867 52.8469 18.1846Z" fill="black"/>
<path d="M52.8466 29.0542H53.3466V28.5542V18.1846C53.3466 14.7371 52.3312 12.0733 50.4951 10.2723C48.6611 8.47341 46.0716 7.59741 43.0444 7.59741C40.0157 7.59741 37.4265 8.48436 35.5932 10.288C33.758 12.0935 32.7422 14.7566 32.7422 18.1846V28.548V29.048H33.2422H38.0228H38.5228V28.548V22.4681H41.6662H42.1662V21.9681V20.261V19.761H41.6662H38.5228V18.1846C38.5228 16.3729 39.0017 15.1098 39.7668 14.3019C40.5287 13.4972 41.6388 13.0761 43.0444 13.0761C44.45 13.0761 45.5601 13.4972 46.322 14.3019C47.0871 15.1098 47.566 16.3729 47.566 18.1846V28.5542V29.0542H48.066H52.8466Z" fill="url(#paint0_angular_378:80)" stroke="black"/>
<defs>
<radialGradient id="paint0_angular_378:80" cx="0" cy="0" r="1" gradientUnits="userSpaceOnUse" gradientTransform="translate(43.0444 18.3258) rotate(90) scale(10.2284 9.80223)">
<stop stop-color="#EDBDA7"/>
<stop offset="1" stop-color="#67ACE9"/>
</radialGradient>
</defs>
</svg>
