<svg xmlns="http://www.w3.org/2000/svg" xmlns:xlink="http://www.w3.org/1999/xlink" viewBox="0 0 718 137.04"><defs><style>.cls-1{fill:none;}.cls-2{fill:url(#linear-gradient);}</style><linearGradient id="linear-gradient" x1="159.92" y1="135.57" x2="248.85" y2="135.57" gradientTransform="matrix(1, 0, 0, -1, 0, 222)" gradientUnits="userSpaceOnUse"><stop offset="0" stop-color="#ecbaa3"/><stop offset="1" stop-color="#5398d4"/></linearGradient></defs><g id="Layer_2" data-name="Layer 2"><g id="Layer_1-2" data-name="Layer 1"><rect class="cls-1" width="718" height="137"/><path d="M0,7.78H22.6V136.51H0Z"/><path d="M40.65,87.73c0-28.42,20.89-49.26,50.53-49.26s50.14,20.84,50.14,49.26v8H64.39c3,13.64,13.49,20.85,26.79,20.85,10.06,0,17.47-2.85,22.22-8.91h24.11c-7,17.81-24.11,29.37-46.35,29.37C61.54,137,40.65,116.16,40.65,87.73Zm76.71-10C113.75,65.22,103.48,59,91.15,59c-12.73,0-22.61,6.44-26.22,18.76Z"/><path d="M267.45,98.53V7.78h22.6V40.94h48.44V61.41H290.05V98.58c0,12.5,6.46,17.43,15.77,17.43s15.76-4.74,15.76-17.43V96.11h22.61v2.47c0,26-15.58,38.46-38.37,38.46S267.45,124.49,267.45,98.53Z"/><path d="M354.83,87.73c0-28.42,20.89-49.26,50.52-49.26s50.53,20.84,50.53,49.26S435,137,405.35,137,354.83,116.16,354.83,87.73Zm78.06,0c0-16.48-11-28.23-27.54-28.23s-27.76,11.75-27.76,28.23S388.8,116,405.35,116s27.54-11.78,27.54-28.27Z"/><path d="M467.85,122a15,15,0,1,1,15,15,14.67,14.67,0,0,1-14-9.19A14.45,14.45,0,0,1,467.85,122Z"/><path d="M509.84,87.73c0-28.42,20.9-49.26,50.53-49.26s50.15,20.84,50.15,49.26v8H533.59c3,13.64,13.49,20.85,26.78,20.85,10.07,0,17.48-2.85,22.22-8.91H606.7c-7,17.81-24.11,29.37-46.34,29.37C530.72,137,509.84,116.16,509.84,87.73Zm76.71-10C583,65.22,572.67,59,560.34,59c-12.73,0-22.6,6.44-26.21,18.76Z"/><path d="M625.31,89.63V40.93h22.61v48.7c0,17.81,9.5,26.34,23.75,26.34s23.74-8.53,23.74-26.34V40.93H718v48.7c0,31.26-18.6,47.37-46.33,47.37S625.31,121.08,625.31,89.63Z"/><path d="M223.25,136.44V85.8c0-14-6.52-21.36-18.87-21.36s-18.86,7.38-18.86,21.36v5.44h16.53v15.52H185.52v29.65H156V85.8c0-30.92,18.09-49.37,48.38-49.37s48.39,18.45,48.39,49.37v50.64Z"/><path class="cls-2" d="M248.85,85.8v46.72H227.17V85.8c0-17.1-9.12-25.28-22.79-25.28S181.6,68.7,181.6,85.8v9.35h16.53v7.69H181.6v29.65H159.92V85.8c0-30,17.86-45.46,44.46-45.46S248.85,55.61,248.85,85.8Z"/></g></g></svg>